<svg id="Layer_1" data-name="Layer 1" xmlns="http://www.w3.org/2000/svg" width="732" height="203.3" viewBox="0 0 732 203.3"><defs><style>.cls-1{fill:#0f385f;}.cls-2{fill:#fefefe;}.cls-3{fill:#fecc00;}.cls-4{fill:#b2b3b3;}</style></defs><title>amity-university-logo_freelogovectors.net</title><path class="cls-1" d="M708.41,449l-15.1-29.74a8,8,0,0,0-2.67-3.22,9.66,9.66,0,0,0-4.28-.92l.08-3.05H708v3.05h-.77a13,13,0,0,0-4.39.53c-.93.35-1.4.9-1.4,1.62a3.14,3.14,0,0,0,.27,1.14,16.53,16.53,0,0,0,1.06,2.17L715,444l10.77-21.4a11,11,0,0,0,.77-1.94,6.66,6.66,0,0,0,.25-1.7,3.12,3.12,0,0,0-1.6-2.86,10,10,0,0,0-5-.95l.08-3.05h18.08v3.05c-3.17.36-5.69,2.37-7.59,6l-.39.81-13.57,25.92v16.29c0,3,.45,4.91,1.33,5.86s2.71,1.42,5.46,1.42h1.57v3.05h-25v-3.05h1.58c2.65,0,4.41-.45,5.28-1.33s1.29-2.9,1.29-6Zm-27.88-36.93,5.14,15-2.72,1q-6.57-8.39-10.14-10.82a13.68,13.68,0,0,0-7.85-2.42,4.1,4.1,0,0,0-2.71.68,3.3,3.3,0,0,0-.77,2.54v45.83c0,3.11.45,5.15,1.33,6.1s2.71,1.42,5.46,1.42h1.57v3.05h-25v-3.05h1.56c2.73,0,4.52-.47,5.39-1.37s1.32-2.95,1.32-6.08V418.09a3.33,3.33,0,0,0-.76-2.53,4.15,4.15,0,0,0-2.72-.68,13.7,13.7,0,0,0-7.85,2.42c-2.37,1.63-5.76,5.23-10.13,10.82l-2.73-1,5.14-15Zm-54.23,0v3.13h-1.66c-2.78,0-4.59.47-5.43,1.38s-1.27,3.06-1.27,6.41V463.4c0,3.43.45,5.62,1.36,6.59s2.73,1.45,5.5,1.45h1.5v3.05H601.35v-3.05h1.06q4.32,0,5.72-1.32c.94-.89,1.41-3,1.41-6.37V423q0-5.29-1.33-6.54c-.86-.83-2.75-1.25-5.63-1.25h-1.23v-3.13Zm-67.48,63.64-6.24-16.67,2.92-1.1a45,45,0,0,0,11,10.77,20.29,20.29,0,0,0,11.14,3.79,11.57,11.57,0,0,0,8.53-3.46,11.69,11.69,0,0,0,3.44-8.6,11,11,0,0,0-3.16-8.28q-3.18-3-13-5.95l-1.83-.5q-7.85-2.1-11.37-5.62a18,18,0,0,1-3.88-5.74,17.57,17.57,0,0,1-1.34-6.76,16.29,16.29,0,0,1,16.68-16.71,21.52,21.52,0,0,1,6.2,1.05,22.62,22.62,0,0,0,4.07,1,8.65,8.65,0,0,0,2.66-.46,22.39,22.39,0,0,0,3.32-1.34l5.86,15.76-2.47,1.37a47.3,47.3,0,0,0-10-11,16.09,16.09,0,0,0-9.59-3.6,10.16,10.16,0,0,0-7.64,3.14,12,12,0,0,0-2,12.69,11.58,11.58,0,0,0,3.1,3.85c1.9,1.58,5.76,3.14,11.63,4.7L580,439c5.27,1.47,9.2,3.76,11.82,6.83a17.43,17.43,0,0,1,3.92,11.67,18.4,18.4,0,0,1-5,13.09,16.1,16.1,0,0,1-12.21,5.36,26,26,0,0,1-8.57-1.52c-2.91-1-4.45-1.53-4.62-1.53a6.73,6.73,0,0,0-2.49.66,34.28,34.28,0,0,0-4,2.22m-46.29-34.79h7q8.19,0,11.86-3t3.67-9.58q0-6.92-3.42-10.15T520.84,415c-3.45,0-5.69.45-6.75,1.36s-1.56,2.9-1.56,6Zm23.12,33.56-16.72-30.33h-6.4v20c0,3,.44,5,1.33,5.91s2.69,1.36,5.42,1.36h1.48v3.05H495.85v-3.05h1.45c2.77,0,4.6-.47,5.46-1.41s1.32-3.18,1.32-6.7V422.5c0-3.13-.43-5.12-1.28-6s-2.76-1.29-5.67-1.29h-1.28v-3.13h24.82q11.63,0,17.62,4.22t6,12.38a12.48,12.48,0,0,1-4.15,9.84c-2.75,2.46-7,4.16-12.79,5.13l11.46,20.09c1.84,3.22,3.51,5.3,5,6.25a10.83,10.83,0,0,0,6,1.45h.64v3.05Zm-97.77,0v-3.05h1.45c2.77,0,4.59-.48,5.46-1.4s1.32-3.09,1.32-6.47V422.92c0-3.46-.44-5.61-1.29-6.45s-2.78-1.25-5.75-1.25h-1.19v-3.13H481.5l6.15,14.69-2.42.92q-5.73-7.41-10.44-10.15a22.16,22.16,0,0,0-11.37-2.74q-5.39,0-7.13,1.41c-1.16.94-1.73,2.87-1.73,5.78v18.36h4.33c4,0,6.93-.8,8.86-2.38s3.17-4.2,3.74-7.86h3v24.11h-3c-.48-3.81-1.69-6.53-3.62-8.19s-4.94-2.47-9-2.47h-4.33V465c0,2.36.52,4,1.56,4.88s2.94,1.33,5.65,1.33a29.57,29.57,0,0,0,14.28-3.37,33.43,33.43,0,0,0,11.27-10.5l2.51.88-6,16.29ZM405,476.65l-17.88-51.78-.16-.46q-3.07-8.69-9.34-9.27v-3.05h23.13v3.05a17,17,0,0,0-5.56.92,2.34,2.34,0,0,0-1.57,2.21,7.77,7.77,0,0,0,.28,1.6,25.72,25.72,0,0,0,.79,2.59l13.78,39.64,12.94-38.37a15.3,15.3,0,0,0,.55-2.1,9.66,9.66,0,0,0,.17-1.8,3.88,3.88,0,0,0-1.55-3.41,10.68,10.68,0,0,0-5.24-1.28v-3.05h18.76v3.05a8,8,0,0,0-4.84,1.76c-1.13,1-2.14,2.8-3.05,5.42l-18.84,54.32ZM375.1,412.09v3.13h-1.65c-2.78,0-4.59.47-5.43,1.38s-1.28,3.06-1.28,6.41V463.4c0,3.43.45,5.62,1.36,6.59s2.74,1.46,5.51,1.46h1.49v3.05H350.16v-3.05h1c2.89,0,4.8-.45,5.72-1.33s1.41-3,1.41-6.37V423c0-3.52-.43-5.7-1.31-6.54s-2.76-1.25-5.64-1.25h-1.23v-3.13Zm-74.35,0,34.07,48.52V426.56c0-4-.68-6.88-2.06-8.53s-3.69-2.5-7-2.56v-3.38h21.9v3.38q-4.89.09-6.95,2.56t-2.09,8.53V475.9h-3l-36.95-53.06V460c0,4.05.68,6.88,2.05,8.53s3.7,2.5,7,2.57v3.37h-21.9l.05-3.37c3.27-.07,5.61-.91,6.95-2.57s2.05-4.48,2.05-8.53V418.85a10,10,0,0,0-3.71-2.57,16.51,16.51,0,0,0-5.29-1.07l-.05-3.12ZM264,415.49v-3.31h20.25v3.31q-4.45.25-6.3,2.73c-1.23,1.64-1.86,4.43-1.86,8.34v24.71q0,12.64-5.28,18.64t-16.36,6q-10.94,0-16.54-5.61t-5.58-16.69V422.68c0-3.05-.45-5.06-1.36-6s-2.72-1.45-5.46-1.45H224v-3h25v3H247.5c-2.76,0-4.55.47-5.42,1.39s-1.29,3-1.29,6.31V455c0,5.73,1.28,10,3.82,12.85s6.41,4.24,11.59,4.24c5.38,0,9.39-1.62,12-4.83s4-8.12,4-14.66v-26q0-5.91-1.82-8.37c-1.22-1.63-3.34-2.53-6.34-2.7" transform="translate(-9 -273.35)"/><path class="cls-1" d="M684.43,345.88l-28.5-56.08c-1.61-3-3.27-5-5-6.07s-4.46-1.58-8.09-1.74l.17-5.75h40.64V282h-1.44c-3.8,0-6.56.32-8.28,1s-2.62,1.69-2.62,3.05a6,6,0,0,0,.49,2.15,31,31,0,0,0,2,4.09l23.14,44.12L717.23,296a22.28,22.28,0,0,0,1.45-3.65,12.69,12.69,0,0,0,.46-3.22,5.88,5.88,0,0,0-3-5.39c-2-1.19-5.17-1.79-9.37-1.79l.16-5.75H741V282c-6,.68-10.73,4.46-14.32,11.32-.32.69-.57,1.21-.73,1.53l-25.6,48.89v30.72c0,5.58.85,9.26,2.52,11.06s5.1,2.66,10.29,2.66h3v5.75H669.05v-5.75h3c5,0,8.33-.84,10-2.5s2.43-5.47,2.43-11.39Zm-52.59-69.64,9.7,28.33-5.14,1.9q-12.37-15.81-19.12-20.4a25.71,25.71,0,0,0-14.81-4.57q-3.68,0-5.11,1.28c-1,.84-1.44,2.45-1.44,4.79V374c0,5.88.85,9.72,2.51,11.52s5.11,2.67,10.3,2.67h2.95v5.74h-47.2v-5.74h2.95q7.7,0,10.16-2.59c1.67-1.74,2.49-5.56,2.49-11.47V287.57c0-2.34-.5-3.95-1.46-4.8s-2.64-1.27-5.1-1.27a25.71,25.71,0,0,0-14.81,4.57q-6.72,4.62-19.12,20.4l-5.14-1.9,9.7-28.33Zm-102.27,0v5.91h-3.12q-7.86,0-10.24,2.59c-1.61,1.74-2.4,5.77-2.4,12.09V373q0,9.69,2.57,12.42c1.69,1.83,5.15,2.76,10.37,2.76h2.82v5.74h-47v-5.74h2c5.44,0,9-.85,10.79-2.51s2.65-5.69,2.65-12V296.83q0-10-2.48-12.34c-1.64-1.55-5.19-2.34-10.63-2.34h-2.32v-5.91Zm-86.73,7.9L403.12,393.92h-4.4L358.4,285.42v81.21c0,7.3,1.2,12.5,3.61,15.67s6.36,4.87,11.91,5.25l.08,6.37H335.68v-6.37q8.47-.65,12-5.31t3.52-15.61V298.36c0-7.57-.79-12.15-2.4-13.78s-4.86-2.43-9.84-2.43h-3.27v-5.91h33.76l35.05,93.83,34.42-93.83h35.24v5.91H471.2c-5.2,0-8.56.87-10.11,2.59s-2.33,6-2.33,12.8v76.28c0,6.08.8,10,2.41,11.75s4.95,2.61,10,2.61h2.95v5.74H427.46v-5.74h2.73c5.16,0,8.58-.84,10.22-2.54s2.43-5.63,2.43-11.82ZM224,393.92v-5.74c3.91-.22,6.91-1.31,9-3.33s4.13-5.88,6-11.68l31.22-95.6,12.87-4.22L318,376.76a27,27,0,0,0,2.52,5.83,13.29,13.29,0,0,0,3.16,3.68,8.65,8.65,0,0,0,3.12,1.3,32.78,32.78,0,0,0,5.76.6v5.75H289.1v-5.75h1.12c4.59,0,7.81-.57,9.7-1.68s2.78-3,2.78-5.67a9.72,9.72,0,0,0-.41-2.24c-.24-1-.59-2.17-1-3.48l-7.42-22H252.52L247,371.34a19.64,19.64,0,0,0-.77,3.11,20.36,20.36,0,0,0-.27,3.43c0,3.51.89,6.1,2.73,7.79s4.59,2.5,8.3,2.5h1.62v5.75Zm31-48.34h36.08l-17.92-55.77Z" transform="translate(-9 -273.35)"/><path class="cls-2" d="M92.41,469.46l-1-2.39c20-8.3,33.66-14.61,42.86-19.49,13.78-7.32,25.06-16,31.11-30.26,3.36-7.95,5.21-17.52,5.22-29.08,0-.66,0-1.34,0-2v0l-.39-89.66h2.58l-1.25,2.26c-21.37-11.88-50.24-17.93-79.12-17.92s-57.75,6-79.12,17.92L12,296.52H14.6q-.19,44.84-.39,89.66v0c0,.67,0,1.34,0,2,0,11.56,1.86,21.14,5.23,29.09,6.05,14.29,17.33,22.94,31.1,30.26,9.21,4.88,22.85,11.19,42.86,19.49l-1,2.39-1-2.39,1,2.39-1,2.39c-20.1-8.34-33.86-14.69-43.31-19.7-14.17-7.51-26.75-17-33.44-32.82C11,410.63,9,400.33,9,388.23c0-.7,0-1.39,0-2.1l2.59.05H9q.2-44.84.39-89.67V295l1.32-.74c22.45-12.44,52-18.56,81.63-18.57s59.19,6.13,81.63,18.57l1.32.74v1.51q.21,44.85.39,89.67h-2.58l2.58,0c0,.7,0,1.4,0,2.1,0,12.1-1.95,22.39-5.62,31.09-6.7,15.84-19.27,25.3-33.45,32.82-9.44,5-23.2,11.36-43.3,19.7l-1,.41-1-.41Z" transform="translate(-9 -273.35)"/><path class="cls-1" d="M92.41,469.46c20.06-8.32,33.76-14.65,43.09-19.59,14-7.42,25.9-16.48,32.27-31.55,3.72-8.79,5.64-19.4,5.4-32.14q-.18-44.83-.38-89.66C129,272.19,55.85,272.19,12,296.52l-.39,89.66c-.23,12.74,1.68,23.35,5.4,32.14,6.38,15.07,18.3,24.13,32.28,31.55,9.33,4.94,23,11.27,43.08,19.59" transform="translate(-9 -273.35)"/><path class="cls-2" d="M51.44,302.85H58l-3.23-10.06Zm-5.58,8.72v-1a2.46,2.46,0,0,0,1.62-.59,5.29,5.29,0,0,0,1.09-2.11l5.63-17.24,2.32-.76,6.28,18.64a4.81,4.81,0,0,0,.46,1.06l.57.66.57.23a4.64,4.64,0,0,0,1,.11v1H57.6v-1h.19a3.68,3.68,0,0,0,1.75-.3,1.1,1.1,0,0,0,.51-1l-.08-.4-.19-.64-1.34-4H51l-1,3.29-.14.56,0,.62a1.88,1.88,0,0,0,.49,1.41,2.17,2.17,0,0,0,1.5.44h.29v1Zm39.46-19.8-7.17,19.8h-.79L70.09,292v14.65a4.67,4.67,0,0,0,.65,2.82,2.78,2.78,0,0,0,2.15.95v1.15H66v-1.15a2.84,2.84,0,0,0,2.16-1,4.78,4.78,0,0,0,.63-2.81V294.34a4.23,4.23,0,0,0-.43-2.49,2.59,2.59,0,0,0-1.78-.44H66v-1.06h6.08l6.32,16.92,6.21-16.92H91v1.06h-.53a2.53,2.53,0,0,0-1.83.47,4,4,0,0,0-.42,2.31v13.75a3.41,3.41,0,0,0,.44,2.12,2.47,2.47,0,0,0,1.81.47H91v1H82.53v-1H83a2.66,2.66,0,0,0,1.84-.45,3.36,3.36,0,0,0,.44-2.14ZM101,290.35v1.06h-.57a2.59,2.59,0,0,0-1.85.47,3.55,3.55,0,0,0-.43,2.18V307.8a3.56,3.56,0,0,0,.46,2.24,2.6,2.6,0,0,0,1.88.49H101v1H92.48v-1h.36a3,3,0,0,0,1.94-.44,3.24,3.24,0,0,0,.48-2.17V294.06q0-1.8-.45-2.22a2.93,2.93,0,0,0-1.91-.43h-.42v-1.06Zm18.44,0,1.75,5.1-.93.35a18.71,18.71,0,0,0-3.45-3.68,4.63,4.63,0,0,0-2.67-.83,1.35,1.35,0,0,0-.92.24,1.13,1.13,0,0,0-.26.86V308a3.23,3.23,0,0,0,.45,2.07,2.61,2.61,0,0,0,1.86.48h.53v1h-8.51v-1h.53a2.6,2.6,0,0,0,1.83-.46,3.21,3.21,0,0,0,.45-2.07V292.39a1.13,1.13,0,0,0-.26-.86,1.36,1.36,0,0,0-.92-.23,4.6,4.6,0,0,0-2.67.82,18.71,18.71,0,0,0-3.45,3.68l-.93-.35,1.75-5.1Zm9.48,12.56-5.13-10.12a2.81,2.81,0,0,0-.91-1.09,3.29,3.29,0,0,0-1.46-.32l0-1h7.33v1h-.26a4.48,4.48,0,0,0-1.49.18l-.47.55.09.39.35.74,4.17,7.95,3.67-7.27.26-.66.09-.58a1.06,1.06,0,0,0-.55-1,3.36,3.36,0,0,0-1.69-.33l0-1h6.14v1a3.38,3.38,0,0,0-2.58,2.05l-.13.27-4.62,8.82v5.54a3.14,3.14,0,0,0,.45,2,2.63,2.63,0,0,0,1.86.48h.54v1h-8.5v-1h.54a2.67,2.67,0,0,0,1.8-.44,3.26,3.26,0,0,0,.44-2.06Z" transform="translate(-9 -273.35)"/><path class="cls-2" d="M53.1,316.34v-.56h3.66v.56a1.47,1.47,0,0,0-1.13.47,2.26,2.26,0,0,0-.34,1.42v4.21a4.51,4.51,0,0,1-1,3.18,3.89,3.89,0,0,1-3,1,4.21,4.21,0,0,1-3-.95,3.72,3.72,0,0,1-1-2.84v-5.28a1,1,0,0,0-1.24-1.27h-.27v-.52h4.54v.52H50.1a1.48,1.48,0,0,0-1,.23,1.71,1.71,0,0,0-.23,1.08v5.47a3.06,3.06,0,0,0,.69,2.19,2.78,2.78,0,0,0,2.1.72,2.74,2.74,0,0,0,2.18-.82,3.79,3.79,0,0,0,.71-2.5v-4.44a2.3,2.3,0,0,0-.33-1.43,1.51,1.51,0,0,0-1.14-.46m6.66-.58L65.93,324v-5.81a2.18,2.18,0,0,0-.37-1.45,1.66,1.66,0,0,0-1.26-.44v-.58h4v.58a1.66,1.66,0,0,0-1.26.44,2.17,2.17,0,0,0-.38,1.45v8.41h-.54l-6.7-9v6.34a2.18,2.18,0,0,0,.37,1.45,1.67,1.67,0,0,0,1.27.44v.57h-4v-.57a1.62,1.62,0,0,0,1.25-.44,2.12,2.12,0,0,0,.38-1.45v-7l-.68-.44a3.47,3.47,0,0,0-1-.19v-.53Zm13.47,0v.54h-.3a1.45,1.45,0,0,0-1,.23,1.66,1.66,0,0,0-.24,1.1v6.89a1.74,1.74,0,0,0,.25,1.12,1.48,1.48,0,0,0,1,.24h.27v.52H68.71v-.52h.19a1.63,1.63,0,0,0,1-.22c.18-.15.26-.51.26-1.09v-6.94c0-.6-.08-1-.24-1.12a1.65,1.65,0,0,0-1-.21h-.22v-.54Zm5.42,11L75.41,318l0-.08c-.37-1-.93-1.52-1.69-1.58v-.53h4.19v.53a3.29,3.29,0,0,0-1,.15l-.28.38.05.27.14.44,2.5,6.76,2.35-6.54.09-.36,0-.31-.29-.58a2,2,0,0,0-.94-.21v-.53h3.39v.53a1.43,1.43,0,0,0-.87.29,2.25,2.25,0,0,0-.56.93l-3.41,9.26Zm6-.37v-.52h.26a1.5,1.5,0,0,0,1-.23c.17-.16.24-.53.24-1.11v-6.93c0-.59-.07-1-.23-1.1a1.74,1.74,0,0,0-1.05-.21h-.21v-.54h7.91l1.11,2.51-.44.16a7,7,0,0,0-1.89-1.73,4.13,4.13,0,0,0-2.06-.47,2.33,2.33,0,0,0-1.29.24,1.19,1.19,0,0,0-.32,1v3.14h.79a2.58,2.58,0,0,0,1.6-.41,2,2,0,0,0,.68-1.34h.54V323H90.7a2.08,2.08,0,0,0-.65-1.4,2.67,2.67,0,0,0-1.63-.42h-.79v3.65a1,1,0,0,0,.29.84,1.79,1.79,0,0,0,1,.22,5.67,5.67,0,0,0,2.59-.57,6,6,0,0,0,2-1.79l.46.15-1.09,2.77Zm17.72,0-3-5.16H98.14v3.4a1,1,0,0,0,1.23,1.24h.26v.52H95.12v-.52h.26a1.45,1.45,0,0,0,1-.24,1.76,1.76,0,0,0,.24-1.14v-7a1.46,1.46,0,0,0-.24-1,1.55,1.55,0,0,0-1-.22h-.23v-.54h4.49a5.81,5.81,0,0,1,3.2.72,2.37,2.37,0,0,1,1.09,2.11,2.08,2.08,0,0,1-.75,1.68,4.69,4.69,0,0,1-2.32.88l2.08,3.42a3.11,3.11,0,0,0,.9,1.07,2.11,2.11,0,0,0,1.08.24H105v.52Zm-4.19-5.72H99.4a3.66,3.66,0,0,0,2.15-.5,2,2,0,0,0,.67-1.64,2.18,2.18,0,0,0-.63-1.73,2.86,2.86,0,0,0-2-.55,2,2,0,0,0-1.21.23c-.2.15-.29.49-.29,1Zm8.39,5.93-1.13-2.83.53-.19a7.84,7.84,0,0,0,2,1.83,3.87,3.87,0,0,0,2,.65,2.16,2.16,0,0,0,1.54-.59,1.91,1.91,0,0,0,.62-1.47,1.82,1.82,0,0,0-.57-1.41,6.22,6.22,0,0,0-2.35-1l-.34-.09a4.66,4.66,0,0,1-2-1l-.71-1a2.82,2.82,0,0,1-.24-1.15,2.7,2.7,0,0,1,.86-2,3,3,0,0,1,2.16-.81,4.12,4.12,0,0,1,1.13.18,4.42,4.42,0,0,0,.73.18l.48-.09.61-.22,1.06,2.69-.45.23a8.31,8.31,0,0,0-1.8-1.87,3,3,0,0,0-1.75-.61,1.89,1.89,0,0,0-1.38.53,1.84,1.84,0,0,0-.55,1.35l.18.82.56.65a6.47,6.47,0,0,0,2.11.8l.58.15a4.28,4.28,0,0,1,2.15,1.16,2.89,2.89,0,0,1,.71,2,3,3,0,0,1-.91,2.23,3,3,0,0,1-2.21.91,5.08,5.08,0,0,1-1.56-.25c-.52-.17-.8-.26-.84-.26l-.44.11Zm12.23-10.85v.54h-.3a1.46,1.46,0,0,0-1,.23,1.66,1.66,0,0,0-.24,1.1v6.89a1.74,1.74,0,0,0,.25,1.12,1.48,1.48,0,0,0,1,.24h.27v.52h-4.53v-.52h.2a1.68,1.68,0,0,0,1-.22c.17-.15.25-.51.25-1.09v-6.94c0-.6-.08-1-.24-1.12a1.65,1.65,0,0,0-1-.21h-.23v-.54Zm9.83,0,.93,2.57-.49.17a10,10,0,0,0-1.84-1.85,2.61,2.61,0,0,0-1.42-.41l-.49.12-.14.43v7.81a1.56,1.56,0,0,0,.24,1,1.45,1.45,0,0,0,1,.24h.28v.52h-4.53v-.52h.28a1.44,1.44,0,0,0,1-.23,1.56,1.56,0,0,0,.24-1v-7.83l-.14-.43-.5-.12a2.64,2.64,0,0,0-1.42.41,9.74,9.74,0,0,0-1.83,1.85l-.5-.17.93-2.57Zm5,6.3L130.9,317l-.48-.55-.77-.15v-.53h3.91v.53h-.14l-.8.08-.25.28,0,.19.2.38,2.22,4,2-3.64.13-.33.05-.29-.29-.49a1.93,1.93,0,0,0-.9-.16v-.53h3.27v.53a1.74,1.74,0,0,0-1.37,1l-.07.13-2.46,4.42v2.79a1,1,0,0,0,1.23,1.23h.28v.52h-4.52v-.52h.28a1.46,1.46,0,0,0,1-.22,1.5,1.5,0,0,0,.23-1Z" transform="translate(-9 -273.35)"/><path class="cls-3" d="M92.41,462.8c13.48-5.61,27.33-11.54,40.18-18.36s23.72-14.87,29.48-28.49c3.92-9.28,5.1-19.63,4.92-29.64v-.08l-.34-49.68C121.34,327.5,46.36,334.17,18,374.47l-.15,11.76v.08c-.18,10,1,20.36,4.93,29.64,5.75,13.62,16.76,21.75,29.47,28.49,12.86,6.82,26.7,12.75,40.18,18.36" transform="translate(-9 -273.35)"/><path class="cls-1" d="M80.41,426c8,16.34,41.94,10.07,38.05-12.51,2.71.94,4.2,3.53,4.57,7.33.43,4.39-.82,8.57-1.34,12.88a79.82,79.82,0,0,0,.28,21.05,36.93,36.93,0,0,1-7.77,3.63c-.82-3.23-1.74-6.61-2.51-9.78a10.24,10.24,0,0,1-2.11.55c.82,3.3,1.7,6.58,2.52,9.88-.63.17-1.26.34-1.89.48-1.21-2.93-2.45-6-3.66-8.87a25.69,25.69,0,0,1-3-.24c1.42,3.14,2.87,6.43,4.29,9.59-.94.16-1.88.29-2.8.37-1.68-3.2-3.43-6.56-5.12-9.75a26.06,26.06,0,0,1-2.69-.27c1.87,3.31,3.82,6.8,5.68,10.12h.16a19.69,19.69,0,0,1-3.76-.25L86.67,442.28c7.25,6.39,22.48,6.57,29.42-.78,2-1.65.64-5.22-2.8-2.39a22.33,22.33,0,0,1-10.47,4.47,22.87,22.87,0,0,1-17-3.65c-4-2.87-6.92-7.41-5.36-14m8.71,11.72.42.58-.62.36-.43-.57Zm2.62.46a1,1,0,1,1-1.27.74,1,1,0,0,1,1.27-.74m2.22.66a1.36,1.36,0,0,0,.42,1.51,2.94,2.94,0,0,0,2,.43q10.77.3,17.75-6.58c.67-.7.55-1.67-.14-1.58-5.29,3.81-11.26,5.92-17.58,5.46-.72-.06-2.08-.26-2.44.76" transform="translate(-9 -273.35)"/><path class="cls-2" d="M116,384.13c-7.74,3.58-10,14.73-9.46,22.59.21,3,.55,6.12-.73,9-3.69,8.23-16.35,3.22-13.63-8.23,2.76-11.62,8.55-22.05,8.56-35.72,0-11.27-4.5-21.31-13.65-30.39,2.82,9.89-1.93,15.12-7.33,21.1-3,3.26-5.9,6.45-7.34,10.72a19.17,19.17,0,0,0,3,18.14,30.74,30.74,0,0,1,0-10.15c1.86-9,13.59-13.15,16.44-21,3,5,2.1,12.17-.55,18.9-4.92,10.38-15,24.48-12.41,36.52,1.59,7.33,5.23,12.47,12,15.25,8.37,3.44,18.81,0,22.82-8.34,2-4.09,2.11-8.7.82-13.71-4.46-15.38-1.64-20.17,1.41-24.62" transform="translate(-9 -273.35)"/><path class="cls-4" d="M115.59,383.59l0,0,.74.87a17.48,17.48,0,0,0-3.43,8c-.52,3.6-.11,8.56,2.1,16.15v0a24.23,24.23,0,0,1,.83,7.37,17.41,17.41,0,0,1-1.69,6.74,18.27,18.27,0,0,1-16,10,18.94,18.94,0,0,1-3.84-.27,17.65,17.65,0,0,1-3.73-1.08h0a19.31,19.31,0,0,1-8.17-6.12,23.61,23.61,0,0,1-4.16-9.56C76.18,406,82,395.16,87.05,385.88c1.35-2.5,2.64-4.89,3.69-7.1,1.87-4.75,2.86-9.72,2.18-13.91a13.47,13.47,0,0,0-.59-2.33l-.44-1.06c-1.55,3.2-4.46,5.79-7.41,8.41-3.73,3.31-7.54,6.7-8.5,11.36a23.17,23.17,0,0,0-.44,4.73,40.07,40.07,0,0,0,.39,5.23l-1.06.43a19.72,19.72,0,0,1-4.15-13.47,20.63,20.63,0,0,1,.35-2.62,24.29,24.29,0,0,1,.69-2.56v0c1.43-4.27,4.3-7.45,7.21-10.67l.24-.27,0,0c5.27-5.83,9.88-10.94,7.15-20.5l1-.58a48.64,48.64,0,0,1,10.4,14.56,39.18,39.18,0,0,1,3.44,16.25c0,9.21-2.6,16.93-5.16,24.52-1.25,3.75-2.5,7.48-3.42,11.33-1,4.05.08,7.23,1.95,9.22a7.65,7.65,0,0,0,2.81,1.91,6.47,6.47,0,0,0,3.12.4,5.88,5.88,0,0,0,4.64-3.67c1.11-2.5.91-5.27.72-8l0-.68c-.39-5.75.68-13.23,4.26-18.37a15.08,15.08,0,0,1,2.42-2.74,13,13,0,0,1,3.06-2M114,385.93l-.71.57a13.85,13.85,0,0,0-2.23,2.53c-3.41,4.9-4.42,12.09-4,17.62l0,.68c.21,2.88.42,5.8-.82,8.57a7,7,0,0,1-5.57,4.36,7.7,7.7,0,0,1-3.69-.47,8.85,8.85,0,0,1-3.25-2.2c-2.12-2.26-3.31-5.82-2.25-10.29.93-3.89,2.19-7.65,3.46-11.44,2.52-7.5,5.09-15.14,5.09-24.15a37.83,37.83,0,0,0-3.34-15.78,45.79,45.79,0,0,0-8.65-12.65c1.71,8.83-2.81,13.84-7.92,19.49l0,0-.25.27c-2.82,3.13-5.61,6.21-7,10.25h0v0a21,21,0,0,0-.65,2.42,19,19,0,0,0-.34,2.47A18.29,18.29,0,0,0,74.49,389c-.09-1-.14-2-.14-3a24.79,24.79,0,0,1,.46-5c1-5.06,5-8.57,8.88-12,3.19-2.83,6.32-5.62,7.58-9.09l.41-1.14.65,1v0h0a12.53,12.53,0,0,1,1.1,2.31,15,15,0,0,1,.64,2.54c.73,4.43-.31,9.62-2.25,14.55v0h0c-1.06,2.24-2.36,4.65-3.73,7.16-4.91,9.1-10.65,19.73-8.63,29a22.61,22.61,0,0,0,3.94,9.1,18.09,18.09,0,0,0,7.68,5.74h0a17.06,17.06,0,0,0,3.48,1,18.24,18.24,0,0,0,3.6.26,17.11,17.11,0,0,0,15-9.32h0a16.35,16.35,0,0,0,1.58-6.28,23.44,23.44,0,0,0-.8-7c-2.26-7.78-2.67-12.9-2.13-16.65a16.7,16.7,0,0,1,2.23-6.31" transform="translate(-9 -273.35)"/></svg>