<svg id="Layer_1" data-name="Layer 1" xmlns="http://www.w3.org/2000/svg" width="726.96" height="585.18" viewBox="0 0 726.96 585.18"><defs><style>.cls-1{fill:#d01417;}.cls-2{fill:#fff;}.cls-3{fill:#14120e;}</style></defs><title>chitkara-university-logo_freelogovectors.net</title><path class="cls-1" d="M487.38,375.75c-76.89,0-153.75-.18-230.64,0a46.87,46.87,0,0,1-6.05-.24,14.4,14.4,0,0,1-6-2c-1.7-1.12-2.8-1.15-4.5-2.06,0-.23-.08-.94-.45-1.2a23.31,23.31,0,0,0-3.36-1.87,38.72,38.72,0,0,0-3.94-5.63c.26-1.2-2.54-4.49-2.91-5.66-.11-.31-.57-5.27-.57-5.66.57-81.54.12-163.22,0-244.78a22.31,22.31,0,0,1,.17-4.63c.58-2.05,1.46-4.66,2-6.79l.87-.22c1.53-2.22,2.82-4.55,4.88-6.36,1.15-.81,2.43-2.12,3.54-2.81l1.15.13c0-.44.1-.89.14-1.34a15,15,0,0,1,3.21-.3c.1-.38.21-.76.32-1.14a29.32,29.32,0,0,1,5.79-.74c83,.11,166,0,249-.06a37.57,37.57,0,0,1,4,.24c1.6.56,3.13,2.57,5.23,2.6A55.76,55.76,0,0,1,516.44,91c.72.73,4.18,5.48,4.39,6.49a7.21,7.21,0,0,0,1.25,4.08c.15,1.49.37,3.65.37,5.12q.22,123.45-.05,246.91c0,1.26-.12,2.57-.21,3.83a4.9,4.9,0,0,0-1.39,1.12,5.41,5.41,0,0,0-.68,3,28.15,28.15,0,0,0-5.11,7.2l-1.48-.05a37.06,37.06,0,0,0-2.67,3.33,7.63,7.63,0,0,1-3.36.39,9.33,9.33,0,0,1-5.27,3.21C497.27,375.71,492.33,375.75,487.38,375.75Z" transform="translate(-11.52 -82.41)"/><path class="cls-2" d="M444.93,297c-7.43,0-14.85,0-22.26,0-.74-.7-.79-.37-.79-1.45q.12-55.89.15-111.79c0-.94,0-1.9,0-2.83-.26-.46-.59-1-1.12-1.09a42.78,42.78,0,0,0-4.95-.07q-55.34.09-110.66,0c0-7.41.07-14.82,0-22.22a19.25,19.25,0,0,1,.14-2.41l140.79,0a36.23,36.23,0,0,1,.33,4.55c-.16,43.15-.34,86.33,0,129.47,0,2.62-.17,5.21-.31,7.82Z" transform="translate(-11.52 -82.41)"/><path class="cls-2" d="M403.19,297.09c-7.7,0-15.4-.09-23.09.06V223.62a10,10,0,0,0-3.09-.56c-23.81.21-47.63,0-71.44,0a6,6,0,0,1-.33-1.81c.15-7.57,0-15.19,0-22.79l99.19,0q0,45.69,0,91.39,0,3.6-.1,7.19Z" transform="translate(-11.52 -82.41)"/><path class="cls-2" d="M306.71,297a5,5,0,0,1-.6-1.46c.09-16.51.06-33,0-49.53a14,14,0,0,1,.68-1.73c2-.05,3.81-.14,5.83-.11,14.84.31,29.73,0,44.57,0a9.06,9.06,0,0,1,1.86.26c.06,1.26.11,2.46.1,3.72-.07,15.31.16,30.65,0,46,0,.77,0,1.27-.11,2.12a1.53,1.53,0,0,1-1.16.85C340.84,297.12,323.77,297,306.71,297Z" transform="translate(-11.52 -82.41)"/><path class="cls-3" d="M62.16,551.94a45.16,45.16,0,0,0,11-.25,48.43,48.43,0,0,0,15.5-4.87V512a67.11,67.11,0,0,1-7.23,3.66,24.79,24.79,0,0,1-9.17,1.14c-.37,0-5.23-1-5.51-1.12a33.28,33.28,0,0,1-5.69-3.78c-.15-.14-3.46-4.34-3.58-4.59a65,65,0,0,1-3.73-9.19,54.27,54.27,0,0,1-1.39-8.25c-.2-6.12-.18-12.24,0-18.36a79.89,79.89,0,0,1,1.35-8.26A55,55,0,0,1,56.91,455,22.57,22.57,0,0,1,64,447.16a18.21,18.21,0,0,1,10.1-2.81c6.56.09,8.41,1.41,14.61,4.2l-.07-33.35a55.64,55.64,0,0,0-7.2-2.51,80.21,80.21,0,0,0-8.26-1.27,76.2,76.2,0,0,0-13.76-.06,45.74,45.74,0,0,0-23,9.37,62.51,62.51,0,0,0-8.8,8.57,63.48,63.48,0,0,0-6.93,10.1,111.45,111.45,0,0,0-4.76,11,80.48,80.48,0,0,0-3.46,14.68,131.89,131.89,0,0,0,.08,33,98.8,98.8,0,0,0,3.49,14.7,51.38,51.38,0,0,0,3.54,8.25,86.66,86.66,0,0,0,5.56,9.19,56.28,56.28,0,0,0,26,19.32A47.8,47.8,0,0,0,62.16,551.94Z" transform="translate(-11.52 -82.41)"/><path class="cls-3" d="M207.73,549.59l38,0a16.09,16.09,0,0,0,.27-1.94q.06-67.07,0-134.14H209c-.53,0-1.06,0-1.6.07a9.29,9.29,0,0,0-.2,1.9c.17,44.05,0,88.11,0,132.17A11.35,11.35,0,0,0,207.73,549.59Z" transform="translate(-11.52 -82.41)"/><path class="cls-3" d="M313.67,549.66h1.47a19.16,19.16,0,0,0,.44-3.8c-.11-31.82,0-63.64,0-95.46,0-.55,0-1.1.09-1.66l22.16.16c0-.72,0-1.46,0-2.17,0-11.05,0-22.09.05-33.13l-83.31,0a12.84,12.84,0,0,0-.17,1.95c0,11.1.05,22.21,0,33.32l22.22,0,.1,100.77C289.06,549.64,301.38,549.55,313.67,549.66Z" transform="translate(-11.52 -82.41)"/><path class="cls-3" d="M153.37,549.59h37.08a2.71,2.71,0,0,0,1-1.89q0-66.09,0-132.17a18.7,18.7,0,0,0-.2-2c-12.1,0-24.28.39-36.36,0-1.61-.06-1.52.5-2.17,1.08,0,.61,0,1.22,0,1.84.14,15.13.09,30.27-.05,45.4H138c0-14.52,0-29,0-43.55,0-1.38-.05-2.74-.11-4.11a4.46,4.46,0,0,0-2.28-.63q-18.15.12-36.3-.06c-.07,1-.13,2-.13,3q.09,66.56,0,133.14l38.08.1a11.94,11.94,0,0,0,.74-3.82c-.07-16.35-.11-32.72,0-49.07l14.69,0c.06,17,0,33.93,0,50.88A3,3,0,0,0,153.37,549.59Z" transform="translate(-11.52 -82.41)"/><path class="cls-3" d="M279.09,667.3l3-.1c.29-.55,1.14-2.39,1.37-2.93,8.82-23.1,18.18-46.2,26.56-69.37a67.42,67.42,0,0,1,4.45-7.88,10.62,10.62,0,0,1,6.88-3.17l.12-3.44H296.09L296,583.5a17.86,17.86,0,0,1,6.62,2.36c1.09.73,2.37,2.62,1.92,4.07-3.79,12.2-8.37,23.84-12.71,35.79-.1.27-.59.65-.71.92-2.35,5.36-4.23,11-6.25,16.52-.34,1-.86,1.83-1.28,2.74-7.38-17.84-16-36.82-21.91-55-.74-2.29.2-3.68,1.41-5.57a33.19,33.19,0,0,1,7.13-1.63l-.21-3a10.94,10.94,0,0,0-2.27-.29q-15.39-.08-30.75,0l-.1,3.39a15.82,15.82,0,0,1,6.55,1.58A18.48,18.48,0,0,1,247,589Q263.23,628.07,279.09,667.3Z" transform="translate(-11.52 -82.41)"/><path class="cls-3" d="M504.59,667.14c7.42,1.18,14.73.16,21.11-4.49,3.38-2.46,4.16-4.55,6.71-7.55,1.27-1.51,2.7-6.32,2.83-8.26.37-5-.08-6.77-1.29-11.5-1.08-4.28-4.67-8.25-8.25-10.8-8.81-6.28-18.58-10.83-27.37-17.26a50.93,50.93,0,0,1-4.93-5.42c-.84-1.48-1.61-4.74-1.19-6.42,1.22-4.85,2.42-6.21,6.44-9.18,2.7-2,8.32-2,11.45-1.18a23.8,23.8,0,0,1,8.12,4c.17.13,3.6,3.7,3.81,4,3.25,5.41,3.63,9.52,5,15.43a3.43,3.43,0,0,0,2.75-.29,5.72,5.72,0,0,0,.51-1.84c.06-9.21,0-18.43,0-27.65l-2.7-.44c-.6,1.09-1.86,4.06-2.83,4.54a2.53,2.53,0,0,1-1.84.2c-3.43-1.07-6.67-2.35-10.1-3.65-.36-.13-7.12-1-7.33-1-3.74.48-7.53.59-11,2.22a21.89,21.89,0,0,0-12.86,18.89,48.13,48.13,0,0,0,.92,8.28,34.8,34.8,0,0,0,5.37,8.79,47.69,47.69,0,0,0,5.25,4.49c8.09,5.22,17.71,10.32,25.17,16.08,5,3.84,7.09,11.13,4,17-1,1.79-2.08,3.83-3.93,4.63-6.35,2.72-10.66,3.58-17.54,1.29-3-1-8.25-4.55-10.09-7.33-3.28-5-3.41-8.77-5-14.2-.22-.77-.72-.94-1.43-1.16l-1.94.26-.06,29.61,3.46-.23.34-2.87c.73-.5,1.85-1.87,2.8-1.6C494.2,664,499.24,666,504.59,667.14Z" transform="translate(-11.52 -82.41)"/><path class="cls-3" d="M59.42,667.08a58.16,58.16,0,0,0,14.68.07c7.54-1.09,12.31-3.59,17.61-9.29a23.22,23.22,0,0,0,4-6.43,45.88,45.88,0,0,0,2.48-11c.88-15.57.29-31.24.29-46.81,0-.11.7-4.42.75-4.59.54-1.6,2.65-4.26,4.24-4.7,5.13-1.45,11.13-.88,15.6,2.54,1.71,1.3,5,4.6,5,6.75-.27,20.79.31,41.63-.19,62.42a7.22,7.22,0,0,1-2,4.08c-2.08,1.95-4.63,1.8-7.34,1.94a7.33,7.33,0,0,0-1.62.43v1.8c.23.23.48.44.7.67a1.46,1.46,0,0,0,.92.5c6.42,0,12.85,0,19.28,0,2.43,0,4.63,0,7.08-.06,1-.69.61-2.51.22-3.38-2.38.15-6.48.23-8.22-1.64a9.27,9.27,0,0,1-2.39-5.29c-.43-15.59-.2-31.22-.2-46.81a3.48,3.48,0,0,1,.06-2.76,13,13,0,0,1-.27-3l1.18-1.22c16.29,20.95,32.22,42.28,48.42,63.35,1.14,1.47,1.66,2.08,3.68,2.09l1.22-1.27a2.66,2.66,0,0,1-.39-1.24c0-23.54,0-47.17.07-70.67,0-2.42.94-6.58,2.67-8.32,1.89-1.91,6.14-1.74,8.81-1.61l-.09-3.26-28.6.14v3.17c2.55.1,5.84-.27,8.06,1.27,1,.7,2.79,2.89,2.84,4,.73,17.53.31,35.14.22,52.69-16-20.19-31.64-40.6-47.15-61.24l-50.26,0v3.26c3,.2,6.44-.34,9.1,1.5A7.48,7.48,0,0,1,91.7,589c1.24,14.68,1,31.13.46,45.9A92.86,92.86,0,0,1,91.07,645a17.56,17.56,0,0,1-8.71,12.19c-.51.3-4.89,2.51-5.5,2.69A59.64,59.64,0,0,1,67.67,661a30.33,30.33,0,0,1-9.17-2,15.76,15.76,0,0,1-4.59-3.53,21.84,21.84,0,0,1-3.77-6.77A36.41,36.41,0,0,1,49,642.24c-.77-17.69-.89-35.54-.14-53.23a12.46,12.46,0,0,1,1.35-2.9,3.4,3.4,0,0,1,.82-.83c2.32-1.36,6.16-1.81,8.87-1.61l0-3.06c-11.57-.55-23.36-.41-34.95-.1a3.55,3.55,0,0,0-.3,3.24c3.27-.06,7.28-.25,9.6,2.51A10.13,10.13,0,0,1,35.67,589c.67,16.5.15,33,.54,49.56a80.58,80.58,0,0,0,1.1,9.18A33.06,33.06,0,0,0,40,654.18C44.66,661.79,50.63,665.57,59.42,667.08Z" transform="translate(-11.52 -82.41)"/><path class="cls-3" d="M232,665.39a3.06,3.06,0,0,0,.92.11,8.15,8.15,0,0,0,1.19-1.23c0-.29,0-.6.07-.91A7.56,7.56,0,0,0,232.9,662a13.22,13.22,0,0,1-8.37-2.24c-1.47-1-1.8-4.83-1.8-6.53,0-20.19.07-40.39,0-60.58,0-1.38.93-5.65,1.82-6.55,2.82-2.87,5.67-2.49,9.52-2.2l0-3.53-34.79,0v3.52c3.07-.27,9.86.1,10.51,4.2,2.85,17.71.52,42.07.6,60.58,0,2.21-.16,9.55-1.57,11-1.91,2-6.3,2.62-9,2.33a2.73,2.73,0,0,0-.26.43,7.72,7.72,0,0,0-.39,2.95c10,0,20,.2,30,.05C230.09,665.42,231.12,664.88,232,665.39Z" transform="translate(-11.52 -82.41)"/><path class="cls-3" d="M379.75,665.15c2.26,0,6.43,1.16,7.35-1.79,2.08-6.71,4.07-13.31,6.11-20h-3.34a121.31,121.31,0,0,1-6.41,10.89,50.41,50.41,0,0,1-6.46,4.63,134.07,134.07,0,0,1-22.94.94,22.92,22.92,0,0,1-5.34-1c-1.86-7.85-.78-25.2-.7-34,0-.37.82-.89,1.13-1.07,4.7,0,9.4,0,14.08,0a23.74,23.74,0,0,1,8.27,1.17,16,16,0,0,1,2.79,1.68c1.66,2.33,1.49,5.62,2.24,8.32.13.47.33.94.49,1.42l2.32-.1a2.11,2.11,0,0,0,.69-1.32c.1-9.52,0-19,0-28.53l-3.27-.47c-.6,3.14-.61,5.9-2.26,8.8a6.61,6.61,0,0,1-3.92,3,113.58,113.58,0,0,1-22.58,0V586.86a2.45,2.45,0,0,1,1.47-.72c6.12-.09,21.62-.91,26.61.72.94.31,3.53,1.3,4.08,2.15,2.4,3.68,3.19,6.43,3.85,10.82a4.2,4.2,0,0,0,2.62.19,6,6,0,0,0,.6-3.66c-.29-5.36-.68-10.67-1.11-16l-61.7,0v3.47c2.75,0,6.1-.42,8.54,1.13a6.62,6.62,0,0,1,2.44,4c.65,19.26.22,38.55.22,57.83,0,2.79.48,11.14-1.64,13-2.32,2-5.25,2.45-8.37,2.22a9.38,9.38,0,0,0-1.55,1.77c.23.4,1.21,1.66,1.55,1.67C343.64,665.58,361.72,665.63,379.75,665.15Z" transform="translate(-11.52 -82.41)"/><path class="cls-3" d="M546.81,665.41q15.13-.07,30.29,0a2.08,2.08,0,0,0,1.48-1.14v-1.91c-3.1-.32-6-.58-8.82-2.13-.32-.17-.65-.33-1-.49a5.42,5.42,0,0,1-.52-1,20.52,20.52,0,0,1-1-4.58c-.24-19,0-37.94-.09-56.9,0-2.92.16-10.15,2.51-12.06,2-1.64,6.49-1.44,9-1.4l.1-3.31-35-.16-.19,3.53a21,21,0,0,1,8.91,1.38,10,10,0,0,1,2,3.75c1.48,19.78.1,40.56.38,60.58a46.06,46.06,0,0,1-1.09,9.17c-2.1,3.14-6.26,3.66-9.73,3.19-.07.16-.16.32-.22.49a9.07,9.07,0,0,0-.33,3.33l1.46-.62A3.86,3.86,0,0,1,546.81,665.41Z" transform="translate(-11.52 -82.41)"/><path class="cls-3" d="M632.18,665.18c.4,0,.89.65,1.2.35l1.31-1.26A4.5,4.5,0,0,0,634,662c-2.9.1-7-.08-9.17-2.29-.24-.23-.25-.63-.34-1,0-.17-.87-3.58-.87-3.66-.59-22.73-.11-45.47-.17-68.21,1.38,0,2.77,0,4.17-.1,4.73-.2,13.09-.21,16.52,3.45a11.55,11.55,0,0,1,2.18,3.36c.74,2.6,1.32,4.88,1.93,7.5a4.72,4.72,0,0,0,3.41-.13l-1.31-20.56c-.85,0-1.7-.06-2.54,0-21,.12-42-.06-63,.09a150.3,150.3,0,0,1-.86,18.65,3.36,3.36,0,0,0,.42,1.9,4.59,4.59,0,0,0,2.55.23c1-4.43,2-6.35,3.63-10.38.36-.91,3.41-3.15,4-3.28a56.93,56.93,0,0,1,15.6-.77c.48,0,.93,1,1.13,1.29,0,22,.12,44.06-.09,66.09,0,1.49-.93,4.82-2,5.77-2,1.79-5.69,2.25-8.27,2.09a5.13,5.13,0,0,0-.91.83c-.61.76-.12,2,0,2.91l1.82-.69a2.73,2.73,0,0,0,.92.35C612.58,665.51,622.41,665.59,632.18,665.18Z" transform="translate(-11.52 -82.41)"/><path class="cls-3" d="M711.12,665.1c.29.13.6.25.9.37a5.57,5.57,0,0,0,.92-.44,1.79,1.79,0,0,0,0-3c-3.28,0-7.59-.19-9.53-3.27a237.17,237.17,0,0,1-.77-29.36c6.92-12.93,15.64-27.21,23.84-39.47,2.48-3.61,7.31-6.4,11.82-6.06l.08-3.37a7.49,7.49,0,0,0-1.57-.19c-8.88.06-17.76.09-26.63,0l-.28,3.43c2.55,0,5.46.11,7,2.48a5.7,5.7,0,0,1,.47,5.51c-4.35,10-12.13,21.21-17.9,30.74-5.82-9.17-16-23.81-19.63-33.5-.46-1.25,1.6-3.56,2.81-4.15a11.56,11.56,0,0,1,6.5-1l-.07-3.43-1.84-.13c-11,0-22,.09-33,0l-.09,3.26a17.32,17.32,0,0,1,5.58,1.59,28.45,28.45,0,0,1,4.69,3.67c8.29,13.92,17.29,27.43,25.39,41.46a2.39,2.39,0,0,1,.52,1.83c0,7.33.1,14.69-.08,22,0,1.27-1,5-1.92,5.64-3.21,2-4.52,2.33-8.41,2.33a4,4,0,0,0-.92.66c-.16.6-.33,1.2-.49,1.8a9,9,0,0,0,3.25.83c9.48,0,19,.15,28.46-.05A3.17,3.17,0,0,0,711.12,665.1Z" transform="translate(-11.52 -82.41)"/><path class="cls-3" d="M736.81,549.7l1.27,0a5.63,5.63,0,0,0,.31-2.93c-9.16-42.94-19.17-85.95-28.19-129a23.91,23.91,0,0,0-1.45-4.17H665.84c-9.27,39.43-18,79.7-26.05,119.42-.72,3.55-1.81,7.7-2.77,11.24-8.28-17.79-16.3-35.53-24.31-53.46a1.6,1.6,0,0,1,.5-1.84,44.29,44.29,0,0,0,8.87-5.34,58,58,0,0,0,5.64-5.67c7.23-10,7.89-20.21,6.12-32.13a52.47,52.47,0,0,0-2.5-8.26,57.84,57.84,0,0,0-4.33-7.34A53.56,53.56,0,0,0,616.57,421a37.21,37.21,0,0,0-13.77-5.66c-1.37-.29-8-1.59-9.17-1.62-16.22-.36-32.45,0-48.66-.14-.57,0-1.13.08-1.69.13,0,0-.1,1.83-.09,1.87,0,42.17.5,84.52,0,126.66,0,.32-.26.62-.25.92.11,2.06.37,4.42.45,6.48,11.83,0,23.69-.2,35.5.07a5.49,5.49,0,0,0,3-1c0-14.38-.24-28.82,0-43.22,0-.6.53-2.17.78-1.62a45.31,45.31,0,0,1,1.81,4.38c4.47,13.84,8.79,27.56,13.55,41.32l75.72.06c1-6.63,2-13.13,2.91-19.77,6.57-.21,13.18-.34,19.75-.19a13.63,13.63,0,0,1,1.9.29c.41,4.76.95,10.33,1.73,15a24.81,24.81,0,0,0,1.16,4.64C713.05,549.61,725,549.49,736.81,549.7ZM582,473.58a14.84,14.84,0,0,1-.2-3c-.07-9.25.07-18.58.13-27.84,8.28-.51,12.5,4.45,13.32,12.24a27.57,27.57,0,0,1-1.61,12.47c-1.21,3.62-5.92,5.15-9.19,6A11.78,11.78,0,0,1,582,473.58Zm110.76,27.67q-6,0-11.94.05c1.65-14.65,4.7-29.12,6.2-43.72.07-.73.8,1.28.92,2,2.25,13.86,4.21,27.77,6.3,41.67Z" transform="translate(-11.52 -82.41)"/><path class="cls-3" d="M500.57,549.61c12,0,24.1.1,36.14,0a9.34,9.34,0,0,0,1.49-.29,33.52,33.52,0,0,0-.51-3.48c-8.61-37.78-16.88-75.87-24.78-113.82-1.24-6-2.82-11.79-3.78-17.84a7.1,7.1,0,0,0-2.71-.66c-13.71-.06-27.44.09-41.15-.07C457.15,454,448,494.82,438.64,535.15c-7.91-19.56-15.71-39.32-23.12-59,9-19.62,17.48-39.52,26.65-59.1a16.63,16.63,0,0,0,1-3.41l-39.23,0a11.76,11.76,0,0,0-1.51,2.87c-5.42,16.21-11.78,32.55-17.71,48.64-.21.59-.48,1.15-.73,1.73-.07-.87-.14-1.77-.13-2.64.13-15.92.07-31.83.07-47.73,0-.79-.06-2.41-.1-3l-38.69.05c-.1,1.28-.19,2.54-.18,3.83q.27,64.25,0,128.5a19.87,19.87,0,0,0,.43,3.75l37.85-.08a3,3,0,0,0,.71-1.84c-.05-17.43.24-34.9-.16-52.31,0-.31,0-.62,0-.92.05-1.09.15-2.43.48-1.38,5.81,18.41,11.66,36.69,17.44,55.15.05.16.25.26.38.38.38.38.87.94,1.46.94,23.12.19,46.24,0,69.36.06a3.73,3.73,0,0,0,1-1.92c1-5.75,1.9-12.23,2.56-18l21.16,0Q498.93,539.67,500.57,549.61Zm-20.36-48.4c2.39-14,4.22-28.13,6.12-42.23a5.4,5.4,0,0,1,1.79,2.44c1.95,13,3.47,26,5.85,39-.44.27-.87.54-1.31.83Z" transform="translate(-11.52 -82.41)"/><path class="cls-3" d="M475.21,665.37l1.21,0a6.58,6.58,0,0,0-.24-3.41A21.79,21.79,0,0,1,461,654.18c-7.54-9.53-13.48-20.27-20.73-30,3.21,0,8.51-2.6,11.13-4.55a21.64,21.64,0,0,0,8.34-16.81,51.1,51.1,0,0,0-.92-6.42c-2.55-6.53-5.76-10.21-12-13.37-2.41-1.22-7.47-2.13-10.1-2.28-13.28-.81-26.64-.38-39.93-.3v3.52a19.69,19.69,0,0,1,6.89.37c.72.17,2.64,1.2,2.94,2,2,4.88,1.78,7.64,1.8,12.84,0,18.34.6,37.33-.15,55.58a7.59,7.59,0,0,1-2.75,5.71c-2.61,1.83-5.42,1.79-8.66,1.65l-.12,3.06c11.5.54,23.32.26,34.76.32a3.57,3.57,0,0,0-.16-3.37c-3,.17-8.26,0-9.76-3.29a22.18,22.18,0,0,1-.9-3.66c-.43-9.58-.28-19.19-.24-28.77l6.9-.22a8.2,8.2,0,0,1,2,1.95c7.6,12.28,16.4,24.79,24.79,36.53a5.77,5.77,0,0,0,1.82.86,3.2,3.2,0,0,1,.92-.3C462.88,665.23,469.07,665.47,475.21,665.37Zm-54.58-43.64-.16-33.53c7.44-2.39,11.36-2.3,18.3,1.13.26.12,3.39,3.46,3.62,3.79,3.93,5.77,3.63,13.13,1,19.28a27.75,27.75,0,0,1-4.89,5.37c-4.19,2-6.06,3.1-10.88,3.88A31,31,0,0,1,420.63,621.73Z" transform="translate(-11.52 -82.41)"/></svg>